<svg xmlns="http://www.w3.org/2000/svg" viewBox="0 0 960 720">
  <style>text{font-family:"Helvetica Neue",Helvetica,Arial,"PingFang SC","Microsoft YaHei",sans-serif;}</style>
  <rect x="0" y="0" width="960" height="720" fill="#ffffff"/>
  <text x="480" y="46" font-size="24" font-weight="700" fill="#111827" text-anchor="middle">图4-1  FDE 七角色知识栈雷达</text>
  <text x="480" y="74" font-size="13" fill="#6b7280" text-anchor="middle">正七边形网格 · 每轴 0-5 分 · 蓝色轮廓为「梅州基线」(七维齐备约 4 分)</text>
  <polygon points="480.0,333.0 507.4,346.2 514.1,375.8 495.2,399.5 464.8,399.5 445.9,375.8 452.6,346.2" fill="none" stroke="#e5e7eb" stroke-width="1.2"/>
  <text x="491.0" y="337.0" font-size="10" fill="#9ca3af" text-anchor="middle">1</text>
  <polygon points="480.0,298.0 534.7,324.4 548.2,383.6 510.4,431.1 449.6,431.1 411.8,383.6 425.3,324.4" fill="none" stroke="#e5e7eb" stroke-width="1.2"/>
  <text x="491.0" y="302.0" font-size="10" fill="#9ca3af" text-anchor="middle">2</text>
  <polygon points="480.0,263.0 562.1,302.5 582.4,391.4 525.6,462.6 434.4,462.6 377.6,391.4 397.9,302.5" fill="none" stroke="#e5e7eb" stroke-width="1.2"/>
  <text x="491.0" y="267.0" font-size="10" fill="#9ca3af" text-anchor="middle">3</text>
  <polygon points="480.0,228.0 589.5,280.7 616.5,399.2 540.7,494.1 419.3,494.1 343.5,399.2 370.5,280.7" fill="none" stroke="#e5e7eb" stroke-width="1.2"/>
  <text x="491.0" y="232.0" font-size="10" fill="#9ca3af" text-anchor="middle">4</text>
  <polygon points="480.0,193.0 616.8,258.9 650.6,406.9 555.9,525.7 404.1,525.7 309.4,406.9 343.2,258.9" fill="none" stroke="#e5e7eb" stroke-width="1.2"/>
  <text x="491.0" y="197.0" font-size="10" fill="#9ca3af" text-anchor="middle">5</text>
  <line x1="480" y1="368" x2="480.0" y2="193.0" stroke="#d1d5db" stroke-width="1.2"/>
  <line x1="480" y1="368" x2="616.8" y2="258.9" stroke="#d1d5db" stroke-width="1.2"/>
  <line x1="480" y1="368" x2="650.6" y2="406.9" stroke="#d1d5db" stroke-width="1.2"/>
  <line x1="480" y1="368" x2="555.9" y2="525.7" stroke="#d1d5db" stroke-width="1.2"/>
  <line x1="480" y1="368" x2="404.1" y2="525.7" stroke="#d1d5db" stroke-width="1.2"/>
  <line x1="480" y1="368" x2="309.4" y2="406.9" stroke="#d1d5db" stroke-width="1.2"/>
  <line x1="480" y1="368" x2="343.2" y2="258.9" stroke="#d1d5db" stroke-width="1.2"/>
  <polygon points="480.0,221.0 589.5,280.7 616.5,399.2 537.7,487.8 417.7,497.3 343.5,399.2 367.8,278.5" fill="#dbeafe" fill-opacity="0.55" stroke="#2563eb" stroke-width="2.5"/>
  <circle cx="480.0" cy="221.0" r="4" fill="#2563eb"/>
  <circle cx="589.5" cy="280.7" r="4" fill="#2563eb"/>
  <circle cx="616.5" cy="399.2" r="4" fill="#2563eb"/>
  <circle cx="537.7" cy="487.8" r="4" fill="#2563eb"/>
  <circle cx="417.7" cy="497.3" r="4" fill="#2563eb"/>
  <circle cx="343.5" cy="399.2" r="4" fill="#2563eb"/>
  <circle cx="367.8" cy="278.5" r="4" fill="#2563eb"/>
  <circle cx="480.0" cy="167.0" r="13" fill="#eff6ff" stroke="#93c5fd"/>
  <text x="480.0" y="172.0" font-size="14" font-weight="700" fill="#1d4ed8" text-anchor="middle">1</text>
  <text x="480.0" y="145.0" font-size="15" font-weight="600" fill="#111827" text-anchor="middle">产品设计</text>
  <text x="480.0" y="161.0" font-size="11" fill="#6b7280" text-anchor="middle">· 产品经理</text>
  <circle cx="637.1" cy="242.7" r="13" fill="#eff6ff" stroke="#93c5fd"/>
  <text x="637.1" y="247.7" font-size="14" font-weight="700" fill="#1d4ed8" text-anchor="middle">2</text>
  <text x="655.1" y="240.7" font-size="15" font-weight="600" fill="#111827" text-anchor="start">DDD领域建模</text>
  <text x="655.1" y="257.7" font-size="11" fill="#6b7280" text-anchor="start">· 架构师</text>
  <circle cx="676.0" cy="412.7" r="13" fill="#eff6ff" stroke="#93c5fd"/>
  <text x="676.0" y="417.7" font-size="14" font-weight="700" fill="#1d4ed8" text-anchor="middle">3</text>
  <text x="694.0" y="410.7" font-size="15" font-weight="600" fill="#111827" text-anchor="start">本体OAG</text>
  <text x="694.0" y="427.7" font-size="11" fill="#6b7280" text-anchor="start">· 知识工程师</text>
  <circle cx="567.2" cy="549.1" r="13" fill="#eff6ff" stroke="#93c5fd"/>
  <text x="567.2" y="554.1" font-size="14" font-weight="700" fill="#1d4ed8" text-anchor="middle">4</text>
  <text x="585.2" y="547.1" font-size="15" font-weight="600" fill="#111827" text-anchor="start">商业模式</text>
  <text x="585.2" y="564.1" font-size="11" fill="#6b7280" text-anchor="start">· 商业分析师</text>
  <circle cx="392.8" cy="549.1" r="13" fill="#eff6ff" stroke="#93c5fd"/>
  <text x="392.8" y="554.1" font-size="14" font-weight="700" fill="#1d4ed8" text-anchor="middle">5</text>
  <text x="374.8" y="547.1" font-size="15" font-weight="600" fill="#111827" text-anchor="end">财务财评</text>
  <text x="374.8" y="564.1" font-size="11" fill="#6b7280" text-anchor="end">· 财务顾问</text>
  <circle cx="284.0" cy="412.7" r="13" fill="#eff6ff" stroke="#93c5fd"/>
  <text x="284.0" y="417.7" font-size="14" font-weight="700" fill="#1d4ed8" text-anchor="middle">6</text>
  <text x="266.0" y="410.7" font-size="15" font-weight="600" fill="#111827" text-anchor="end">交付物工程</text>
  <text x="266.0" y="427.7" font-size="11" fill="#6b7280" text-anchor="end">· 文档工程师</text>
  <circle cx="322.9" cy="242.7" r="13" fill="#eff6ff" stroke="#93c5fd"/>
  <text x="322.9" y="247.7" font-size="14" font-weight="700" fill="#1d4ed8" text-anchor="middle">7</text>
  <text x="304.9" y="240.7" font-size="15" font-weight="600" fill="#111827" text-anchor="end">合规治理</text>
  <text x="304.9" y="257.7" font-size="11" fill="#6b7280" text-anchor="end">· 合规官</text>
  <rect x="60" y="668" width="16" height="16" rx="3" fill="#dbeafe" stroke="#2563eb" stroke-width="2"/>
  <text x="84" y="681" font-size="13" fill="#6b7280">梅州基线(七维齐备,各维约 4 分,示范七维齐备才跑通全链)</text>
</svg>